<svg id="Layer_1" data-name="Layer 1" xmlns="http://www.w3.org/2000/svg" viewBox="0 0 518.39 112.82"><defs><style>.cls-1{fill:#ffffff;}</style></defs><title>logo</title><path class="cls-1" d="M155.47,186.74c-4.47,0-8.6-7.21-11-12l-21.88-43.26h-6.76L114,135.05,94.77,172.24c-4.38,8.57-8.12,14.43-13.64,14.53v1.67H101v-1.7c-4,0-4.71-1.88-4.71-3.76,0-2.51,2.36-7,3.33-9l2.6-5.33h27.93l3.57,7.11c1.87,3.66,2.68,5.86,2.68,7.63,0,2.4-1.7,3.35-4.06,3.35v1.67h23.11Zm-51-22.34L116.32,141,128,164.4Z" transform="translate(-0.01 -129.06)"/><path class="cls-1" d="M442.6,172.45,440.47,186c-.48,2.46-1.19,2.46-4.6,2.46H390.24v-1.71c1.79,0,5-.94,6-3.35a13,13,0,0,0,.65-4.81v-37.7c0-2.93-.16-4.6-.65-5.75-1.06-2.4-4.22-3.24-6-3.24v-1.78h49.85v14.22h-1.3c-1-9.41-4.47-9.62-12-9.62H409.24c-1,0-2.19.73-2.19,3.45v16.31c0,.84.24,1.15.89,1.15h16.15a5.88,5.88,0,0,0,5.85-5.75h1.46v16h-1.46a5.8,5.8,0,0,0-5.85-5.75H407.94c-.73,0-.89.42-.89,1.15v13.38c0,7.84.24,9.2,7.31,9.2h11.93c7.55,0,12.5-.52,15-11.4Z" transform="translate(-0.01 -129.06)"/><path class="cls-1" d="M518.4,172.45,516.53,186c-.48,2.46-1.46,2.46-4.87,2.46H466v-1.71c1.79,0,5-.94,6.09-3.35.49-1.15.65-2.72.65-5.65V140.88c0-2.93-.16-4.5-.65-5.65-1.06-2.4-4.3-3.34-6.09-3.34v-1.78h23.62v1.78c-1.79,0-5,.94-6.09,3.34-.49,1.15-.65,2.72-.65,5.65v33.56c0,7.74,1.67,9.41,8.73,9.41h10.51c7.55,0,12.5-.52,15-11.4Z" transform="translate(-0.01 -129.06)"/><path class="cls-1" d="M66.41,161.26H42.7v1.67c1.79.1,5.11.94,6.17,3.34.41,1.15.65,1.31.65,4.24V176c0,8-6.51,8.86-13.72,8.86-11.61,0-24.11-9.72-24.11-25.62s12.5-25.61,24.11-25.61c9.42,0,19.81,1.57,22.49,15.16h1.38V132.2s-.38,1.32-3.73.21a61.78,61.78,0,0,0-20.13-3.35c-15.1,0-35.8,8.78-35.8,30.22C0,181,21.36,189.5,35.81,189.5c8,0,23.79-2,23.79-5.22V170.52a8.78,8.78,0,0,1,.65-4.24c1.06-2.4,4.38-3.24,6.17-3.34Z" transform="translate(-0.01 -129.06)"/><path class="cls-1" d="M368,188.45H344.35v-1.71c1.79-.1,5-.94,6.09-3.35.49-1.15.65-2.72.65-5.65V140a13,13,0,0,0-.65-4.81c-1.06-2.4-4.3-3.35-6.09-3.35V130.1H368v1.78c-1.79,0-5,.94-6.09,3.35a13,13,0,0,0-.65,4.81v37.7c0,2.93.16,4.5.65,5.65,1.06,2.4,4.3,3.24,6.09,3.35Z" transform="translate(-0.01 -129.06)"/><path class="cls-1" d="M326.83,186.74c-10.8-.1-17.57-13.17-25.61-27.18,9-1.67,12.83-8.26,12.83-14.74,0-8.15-5.44-14.74-19.24-14.74H258.93v1.72c1.89.28,4.88.47,6.06,3.3.49,1.15.65,2.82.65,5.75v36.89c0,2.93-.16,4.5-.65,5.65-1.18,2.76-4.17,3-6.06,3.35v1.67c3,0,20.7.11,23.62,0v-1.67c-1.89-.34-4.9-.57-6.08-3.35-.49-1.15-.65-2.72-.65-5.65V160.95c0-.73.33-.94.89-.94h9.5c3.25.1,4.22,1.36,9.34,10.14C302.05,181.23,307,189,321.85,189a27.53,27.53,0,0,0,5-.36ZM293,155.58h-16.4c-.65,0-.81-.21-.81-1v-18.4c0-1,.57-1.67,1.38-1.67H293c6.9,0,9.34,5.44,9.34,10.25,0,5-2.68,10.86-9.33,10.86Z" transform="translate(-0.01 -129.06)"/><path class="cls-1" d="M174.47,188.45H211c9.82,0,24.52-2.2,24.52-17,0-8.26-5.44-13.17-11.45-15.16,3.82-2.51,7.06-6.06,7.06-11.81,0-14.32-16.64-14.32-23.54-14.32H174.47v1.78c1.79,0,5,.84,6,3.24.49,1.15.65,2.82.65,5.75v37.74a13,13,0,0,1-.65,4.81c-1.06,2.4-4.22,3.35-6,3.35Zm16.81-52a1.89,1.89,0,0,1,1.77-2h14.11c6.25,0,12.26,2,12.26,10.25S214,155.16,209,155.16H192c-.65-.1-.81-.42-.81-1.26ZM211.09,184H200c-8.36-.11-8.69-1-8.69-9.2V160.63c0-.73.16-1,.65-1.15H212.7c7.63,0,11.12,6.17,11.12,12s-3.35,12.58-12.73,12.58Z" transform="translate(-0.01 -129.06)"/><path class="cls-1" d="M106.68,223.25v18.23H102.6V213.35h.33L120.71,232V213.74h4.08v28.14h-.32Z" transform="translate(-0.01 -129.06)"/><path class="cls-1" d="M147.09,213.74h17.66v3.87H151.47v8h11.78v3.79H151.47v8.24h13.86v3.87H147.09Z" transform="translate(-0.01 -129.06)"/><path class="cls-1" d="M183.91,213.74h4.56l6,17.7,7.83-18.27h.24l7.87,18.27,5.83-17.7h4.32l-9.7,28.09h-.24l-8.15-19.31-8.4,19.33h-.2Z" transform="translate(-0.01 -129.06)"/><path class="cls-1" d="M263.91,213.74h4.81l7.1,12.44,7-12.44h4.57L278,230.38v11.09h-4.36v-11Z" transform="translate(-0.01 -129.06)"/><path class="cls-1" d="M303.71,227.62a14.31,14.31,0,1,1,14.39,14.23H318a14,14,0,0,1-14.31-13.68Q303.71,227.89,303.71,227.62Zm24.1,0c0-5.87-4-10.28-9.79-10.28s-9.79,4.4-9.79,10.28,4,10.28,9.79,10.28S327.81,233.49,327.81,227.62Z" transform="translate(-0.01 -129.06)"/><path class="cls-1" d="M357.7,241.48h-4.36V213.74h8.89c6.48,0,10.19,3.55,10.19,8.81a7.85,7.85,0,0,1-5.38,7.91l6.69,11H369l-6.2-10.23H357.7Zm4.36-14c4.12,0,5.83-1.63,5.83-4.93s-1.75-4.93-5.83-4.93H357.7v9.87Z" transform="translate(-0.01 -129.06)"/><path class="cls-1" d="M404.39,225.66l11.21,15.82h-5.3L401.47,229l-3.1,3.67v8.85H394V213.74h4.36v13.42l10.95-13.42h4.89Z" transform="translate(-0.01 -129.06)"/></svg>